<svg width="14" height="10" viewBox="0 0 14 10" fill="none" xmlns="http://www.w3.org/2000/svg">
<path d="M5.75621 9.27955C5.62494 9.27981 5.49491 9.25416 5.37359 9.20405C5.25226 9.15394 5.14203 9.08036 5.04921 8.98755L0.807206 4.74455C0.711633 4.65237 0.635374 4.54208 0.582881 4.42011C0.530387 4.29814 0.50271 4.16694 0.501463 4.03417C0.500216 3.90139 0.525425 3.76969 0.575619 3.64676C0.625813 3.52383 0.699987 3.41213 0.793812 3.31817C0.887638 3.22421 0.999236 3.14988 1.1221 3.09951C1.24495 3.04915 1.37662 3.02375 1.50939 3.02481C1.64217 3.02587 1.77341 3.05336 1.89545 3.10568C2.01749 3.158 2.12789 3.2341 2.22021 3.32955L5.75521 6.86455L12.1202 0.501546C12.3077 0.313906 12.5621 0.208437 12.8274 0.208344C13.0926 0.20825 13.3471 0.313538 13.5347 0.501046C13.7223 0.688554 13.8278 0.942923 13.8279 1.20819C13.828 1.47346 13.7227 1.72791 13.5352 1.91555L6.46321 8.98755C6.37038 9.08036 6.26015 9.15394 6.13882 9.20405C6.0175 9.25416 5.88747 9.27981 5.75621 9.27955Z" fill="#2FAB73"/>
</svg>
